<?xml version="1.0"?>
<svg xmlns="http://www.w3.org/2000/svg" xmlns:xlink="http://www.w3.org/1999/xlink" xmlns:svgjs="http://svgjs.com/svgjs" version="1.1" width="512" height="512" x="0" y="0" viewBox="0 0 512 512" style="enable-background:new 0 0 512 512" xml:space="preserve" class=""><g>
<g xmlns="http://www.w3.org/2000/svg" transform="translate(1 1)">
	<path style="" d="M485.43,502.498H24.57c-9.422,0-17.069-7.647-17.069-17.069V75.776h494.997v409.653   C502.498,494.852,494.852,502.498,485.43,502.498" fill="#cc9543" data-original="#ffe100" class=""/>
	<path style="" d="M476.895,75.777V485.43c0,9.422-7.647,17.069-17.069,17.069h25.603   c9.422,0,17.069-7.647,17.069-17.069V75.777H476.895z" fill="#ffa800" data-original="#ffa800"/>
	<path style="" d="M502.498,75.777H7.501V24.57c0-9.422,7.647-17.069,17.069-17.069H485.43   c9.422,0,17.069,7.647,17.069,17.069L502.498,75.777L502.498,75.777z" fill="#cc9543" data-original="#ffe100" class=""/>
	<path style="" d="M485.43,7.501h-25.603c9.422,0,17.069,7.647,17.069,17.069v51.207h25.603V24.57   C502.498,15.148,494.852,7.501,485.43,7.501" fill="#ffa800" data-original="#ffa800"/>
	<g>
		<path style="" d="M33.104,75.777V485.43c0,9.422,7.647,17.069,17.069,17.069H24.57    c-9.422,0-17.069-7.647-17.069-17.069V75.777H33.104z" fill="#ffffff" data-original="#ffffff" class=""/>
		<path style="" d="M24.57,7.501h25.603c-9.422,0-17.069,7.647-17.069,17.069v51.207H7.501V24.57    C7.501,15.148,15.148,7.501,24.57,7.501" fill="#ffffff" data-original="#ffffff" class=""/>
	</g>
	<path d="M485.429,511H24.57C10.47,511-1,499.529-1,485.429V75.776c0-4.695,3.806-8.501,8.501-8.501h494.998   c4.695,0,8.501,3.806,8.501,8.501v409.653C511,499.529,499.529,511,485.429,511z M16.002,84.278V485.43   c0,4.725,3.843,8.568,8.568,8.568h460.858c4.725,0,8.568-3.844,8.568-8.568V84.278H16.002z" fill="#000000" data-original="#000000" style=""/>
	<path d="M502.499,84.278H7.501C2.806,84.278-1,80.472-1,75.777V24.57C-1,10.47,10.47-1,24.57-1h460.858   c14.1,0,25.57,11.47,25.57,25.57v51.207C511,80.472,507.194,84.278,502.499,84.278z M16.002,67.276h477.996V24.57   c0-4.725-3.844-8.568-8.568-8.568H24.57c-4.725,0-8.568,3.844-8.568,8.568V67.276z" fill="#000000" data-original="#000000" style=""/>
	<path d="M50.174,41.639c0,4.711-3.823,8.534-8.534,8.534s-8.535-3.822-8.535-8.534s3.823-8.534,8.534-8.534   S50.174,36.928,50.174,41.639" fill="#000000" data-original="#000000" style=""/>
	<path d="M84.311,41.639c0,4.711-3.823,8.534-8.534,8.534c-4.711,0-8.534-3.823-8.534-8.534s3.823-8.534,8.534-8.534   C80.488,33.104,84.311,36.928,84.311,41.639" fill="#000000" data-original="#000000" style=""/>
	<path d="M118.448,41.639c0,4.711-3.823,8.534-8.534,8.534s-8.534-3.823-8.534-8.534s3.823-8.534,8.534-8.534   S118.448,36.928,118.448,41.639" fill="#000000" data-original="#000000" style=""/>
	<path d="M84.318,365.914c-2.652,0-5.266-1.237-6.925-3.561l-42.673-59.74c-2.111-2.955-2.111-6.927,0-9.882l42.673-59.742   c2.729-3.822,8.038-4.705,11.859-1.977c3.82,2.729,4.706,8.039,1.977,11.859l-39.143,54.8l39.142,54.799   c2.729,3.82,1.844,9.13-1.976,11.859C87.754,365.4,86.028,365.914,84.318,365.914z" fill="#000000" data-original="#000000" style=""/>
	<path d="M425.682,365.914c-1.71,0-3.437-0.515-4.935-1.584c-3.82-2.729-4.706-8.038-1.977-11.859l39.143-54.799l-39.143-54.8   c-2.729-3.82-1.844-9.13,1.977-11.859c3.818-2.727,9.129-1.844,11.859,1.977l42.672,59.742c2.11,2.955,2.11,6.927,0,9.882   l-42.672,59.74C430.948,364.676,428.333,365.913,425.682,365.914z" fill="#000000" data-original="#000000" style=""/>
	<path d="M169.66,357.381c-32.923,0-59.708-26.784-59.708-59.708s26.784-59.708,59.708-59.708c14.719,0,28.853,5.398,39.8,15.2   c3.497,3.131,3.793,8.506,0.662,12.004c-3.131,3.498-8.506,3.796-12.005,0.662c-7.824-7.006-17.93-10.864-28.458-10.864   c-23.548,0-42.705,19.157-42.705,42.706c0,23.548,19.157,42.706,42.705,42.706c10.519,0,20.63-3.863,28.47-10.875   c3.499-3.131,8.874-2.831,12.004,0.668c3.129,3.499,2.831,8.873-0.668,12.004C198.504,351.982,184.367,357.381,169.66,357.381z" fill="#000000" data-original="#000000" style=""/>
	<path d="M272.068,357.379c-18.805,0-34.104-15.299-34.104-34.104c0-4.695,3.806-8.501,8.501-8.501c4.695,0,8.501,3.807,8.501,8.501   c0,9.43,7.672,17.102,17.102,17.102c9.431,0,17.103-7.672,17.103-17.102c0-9.43-7.672-17.102-17.103-17.102   c-18.805,0-34.104-15.3-34.104-34.105s15.299-34.104,34.104-34.104s34.105,15.299,34.105,34.104c0,4.695-3.806,8.501-8.501,8.501   s-8.501-3.806-8.501-8.501c0-9.43-7.672-17.102-17.103-17.102c-9.43,0-17.102,7.672-17.102,17.102   c0,9.431,7.672,17.103,17.102,17.103c18.805,0,34.105,15.299,34.105,34.104C306.174,342.08,290.874,357.379,272.068,357.379z" fill="#000000" data-original="#000000" style=""/>
	<path d="M365.947,357.379c-18.805,0-34.105-15.299-34.105-34.104c0-4.695,3.806-8.501,8.501-8.501c4.695,0,8.501,3.807,8.501,8.501   c0,9.43,7.672,17.102,17.103,17.102c9.43,0,17.102-7.672,17.102-17.102c0-9.43-7.672-17.102-17.102-17.102   c-18.805,0-34.105-15.3-34.105-34.105s15.3-34.104,34.105-34.104c18.805,0,34.104,15.299,34.104,34.104   c0,4.695-3.806,8.501-8.501,8.501s-8.501-3.806-8.501-8.501c0-9.43-7.672-17.102-17.102-17.102   c-9.431,0-17.103,7.672-17.103,17.102c0,9.431,7.672,17.103,17.103,17.103c18.805,0,34.104,15.299,34.104,34.104   C400.052,342.08,384.753,357.379,365.947,357.379z" fill="#000000" data-original="#000000" style=""/>
</g>
<g xmlns="http://www.w3.org/2000/svg">
</g>
<g xmlns="http://www.w3.org/2000/svg">
</g>
<g xmlns="http://www.w3.org/2000/svg">
</g>
<g xmlns="http://www.w3.org/2000/svg">
</g>
<g xmlns="http://www.w3.org/2000/svg">
</g>
<g xmlns="http://www.w3.org/2000/svg">
</g>
<g xmlns="http://www.w3.org/2000/svg">
</g>
<g xmlns="http://www.w3.org/2000/svg">
</g>
<g xmlns="http://www.w3.org/2000/svg">
</g>
<g xmlns="http://www.w3.org/2000/svg">
</g>
<g xmlns="http://www.w3.org/2000/svg">
</g>
<g xmlns="http://www.w3.org/2000/svg">
</g>
<g xmlns="http://www.w3.org/2000/svg">
</g>
<g xmlns="http://www.w3.org/2000/svg">
</g>
<g xmlns="http://www.w3.org/2000/svg">
</g>
</g></svg>
