<?xml version="1.0" encoding="utf-8"?>
<!-- Generator: Adobe Illustrator 18.1.1, SVG Export Plug-In . SVG Version: 6.00 Build 0)  -->
<svg version="1.1" id="Layer_1" xmlns="http://www.w3.org/2000/svg" xmlns:xlink="http://www.w3.org/1999/xlink" x="0px" y="0px"
	 viewBox="0 0 471 90.9" style="enable-background:new 0 0 471 90.9;" xml:space="preserve">
<style type="text/css">
	.st0{fill:none;}
	.st1{fill:#C2AA5C;}
	.st2{fill:#C3A957;}
	.st3{fill:#9E7D2D;}
	.st4{fill:#E0C577;}
	.st5{fill:#C37E74;}
	.st6{opacity:0.57;fill:#C2AA5C;}
	.st7{fill:none;stroke:url(#SVGID_1_);stroke-miterlimit:10;}
</style>
<pattern  x="-2265.5" y="-555.5" width="22.8" height="22.8" patternUnits="userSpaceOnUse" id="New_Pattern_Swatch_9" viewBox="0.2 -22.8 22.8 22.8" style="overflow:visible;">
	<g>
		<polygon class="st0" points="0.2,0 23,0 23,-22.8 0.2,-22.8 		"/>
		<polygon class="st1" points="23,0 0.2,0 0.2,-22.8 23,-22.8 		"/>
		<path class="st2" d="M10.9-9.1c-0.1,0-0.1,0-0.2,0c-0.2-0.1-0.3-0.2-0.4-0.5c0-0.1-0.1-0.3,0-0.5c-0.1,0-0.1,0-0.2,0
			c-0.3,0-0.6-0.2-0.7-0.4c-0.1-0.2-0.1-0.4,0.1-0.6c0.1-0.1,0.2-0.2,0.3-0.3c-0.3-0.2-0.5-0.6-0.4-0.9c0.1-0.3,0.4-0.5,0.8-0.5
			c0,0,0.1,0,0.1,0c-0.1-0.4,0.1-0.7,0.4-0.9c0.1,0,0.2-0.1,0.2-0.1c0.3,0,0.5,0.1,0.7,0.4c0.2-0.3,0.4-0.4,0.7-0.4
			c0.1,0,0.1,0,0.2,0c0.2,0.1,0.3,0.2,0.4,0.5c0,0.1,0.1,0.3,0,0.5c0.1,0,0.1,0,0.2,0c0.3,0,0.6,0.2,0.7,0.4
			c0.1,0.2,0.1,0.4-0.1,0.6c-0.1,0.1-0.2,0.2-0.3,0.3c0.3,0.2,0.5,0.6,0.4,0.9c-0.1,0.3-0.4,0.5-0.8,0.5c0,0,0,0,0,0
			c0,0-0.1,0-0.1,0c0.1,0.4-0.1,0.7-0.4,0.9c-0.1,0-0.2,0.1-0.2,0.1c-0.3,0-0.5-0.1-0.7-0.4C11.4-9.3,11.2-9.1,10.9-9.1z"/>
		<path class="st3" d="M13.1-11.4L13.1-11.4C13.2-11.4,13.2-11.4,13.1-11.4c0.4-0.2,0.6-0.6,0.5-0.9c-0.1-0.3-0.6-0.4-0.9-0.2
			c0,0,0,0,0,0c0.1-0.4,0-0.8-0.3-0.9c-0.3-0.1-0.7,0.1-0.8,0.5v0c0,0,0,0,0,0c-0.2-0.4-0.6-0.6-0.9-0.5c-0.3,0.1-0.4,0.6-0.2,0.9
			c0,0,0,0,0,0c-0.4-0.1-0.8,0-0.9,0.3c-0.1,0.3,0.1,0.7,0.5,0.8h0c0,0,0,0,0,0c-0.4,0.2-0.6,0.6-0.5,0.9c0.1,0.3,0.6,0.4,0.9,0.2
			c0,0,0,0,0,0c-0.1,0.4,0,0.8,0.3,0.9c0.3,0.1,0.7-0.1,0.8-0.5v0c0,0,0,0,0,0c0.2,0.4,0.6,0.6,0.9,0.5c0.3-0.1,0.4-0.6,0.2-0.9
			c0,0,0,0,0,0c0.4,0.1,0.8,0,0.9-0.3C13.8-10.9,13.6-11.3,13.1-11.4z"/>
		<g>
			<path class="st4" d="M11.6-13.8c0.6-3.7,2.6-5.2,2.6-5.2c-0.3-1.1-1.4-1.2-1.4-1.2c0-1.9-1.2-1.9-1.2-1.9s-1.2,0-1.2,1.9
				c0,0-1.1,0.2-1.4,1.2C9-19,11-17.5,11.6-13.8z"/>
			<path class="st4" d="M13.3-13.1c3-2.2,5.5-1.8,5.5-1.8c0.6-1-0.1-1.9-0.1-1.9c1.4-1.4,0.5-2.2,0.5-2.2s-0.8-0.9-2.2,0.5
				c0,0-0.9-0.7-1.9-0.1C15.1-18.7,15.5-16.2,13.3-13.1z"/>
			<path class="st4" d="M14-11.4c3.7,0.6,5.2,2.6,5.2,2.6c1.1-0.3,1.2-1.4,1.2-1.4c1.9,0,1.9-1.2,1.9-1.2s0-1.2-1.9-1.2
				c0,0-0.2-1.1-1.2-1.4C19.2-14,17.7-12,14-11.4z"/>
			<path class="st4" d="M13.3-9.7c2.2,3,1.8,5.5,1.8,5.5c1,0.6,1.9-0.1,1.9-0.1c1.4,1.4,2.2,0.5,2.2,0.5s0.9-0.8-0.5-2.2
				c0,0,0.7-0.9,0.1-1.9C18.8-7.9,16.3-7.5,13.3-9.7z"/>
			<path class="st4" d="M11.6-9C11-5.3,9-3.8,9-3.8c0.3,1.1,1.4,1.2,1.4,1.2c0,1.9,1.2,1.9,1.2,1.9s1.2,0,1.2-1.9
				c0,0,1.1-0.2,1.4-1.2C14.2-3.8,12.2-5.3,11.6-9z"/>
			<path class="st4" d="M9.9-9.7c-3,2.2-5.5,1.8-5.5,1.8C3.8-6.9,4.5-6,4.5-6C3.1-4.6,4-3.8,4-3.8s0.8,0.9,2.2-0.5
				c0,0,0.9,0.7,1.9,0.1C8.1-4.2,7.7-6.7,9.9-9.7z"/>
			<path class="st4" d="M9.2-11.4C5.5-12,4-14,4-14c-1.1,0.3-1.2,1.4-1.2,1.4c-1.9,0-1.9,1.2-1.9,1.2s0,1.2,1.9,1.2
				c0,0,0.2,1.1,1.2,1.4C4-8.8,5.5-10.8,9.2-11.4z"/>
			<path class="st4" d="M9.9-13.1c-2.2-3-1.8-5.5-1.8-5.5c-1-0.6-1.9,0.1-1.9,0.1C4.8-19.9,4-19,4-19s-0.9,0.8,0.5,2.2
				c0,0-0.7,0.9-0.1,1.9C4.4-15,6.9-15.3,9.9-13.1z"/>
		</g>
		<path class="st3" d="M11.6-17.5c0.3-1.2,1.2-1.7,1.2-1.7c-0.1-0.3-0.6-0.4-0.6-0.4c0-0.6-0.5-0.6-0.5-0.6s-0.5,0-0.5,0.6
			c0,0-0.5,0.1-0.6,0.4C10.4-19.2,11.3-18.7,11.6-17.5z"/>
		<path class="st4" d="M12.1-11.4c0,0.3-0.2,0.5-0.5,0.5s-0.5-0.2-0.5-0.5s0.2-0.5,0.5-0.5S12.1-11.7,12.1-11.4z"/>
		<path class="st3" d="M15.9-15.7c1-0.7,2-0.4,2-0.4c0.2-0.3-0.2-0.7-0.2-0.7c0.4-0.4,0.1-0.8,0.1-0.8S17.4-18,17-17.5
			c0,0-0.4-0.3-0.7-0.2C16.2-17.7,16.5-16.7,15.9-15.7z"/>
		<path class="st3" d="M17.6-11.4c1.2,0.3,1.7,1.2,1.7,1.2c0.3-0.1,0.4-0.6,0.4-0.6c0.6,0,0.6-0.5,0.6-0.5s0-0.5-0.6-0.5
			c0,0-0.1-0.5-0.4-0.6C19.3-12.6,18.8-11.7,17.6-11.4z"/>
		<path class="st3" d="M15.9-7.1c0.7,1,0.4,2,0.4,2C16.6-5,17-5.3,17-5.3c0.4,0.4,0.8,0.1,0.8,0.1s0.4-0.4-0.1-0.8
			c0,0,0.3-0.4,0.2-0.7C17.9-6.8,16.9-6.5,15.9-7.1z"/>
		<path class="st3" d="M11.6-5.4c-0.3,1.2-1.2,1.7-1.2,1.7c0.1,0.3,0.6,0.4,0.6,0.4c0,0.6,0.5,0.6,0.5,0.6s0.5,0,0.5-0.6
			c0,0,0.5-0.1,0.6-0.4C12.8-3.7,11.8-4.2,11.6-5.4z"/>
		<path class="st3" d="M7.3-7.1c-1,0.7-2,0.4-2,0.4C5.1-6.4,5.5-6,5.5-6C5-5.6,5.4-5.2,5.4-5.2s0.4,0.4,0.8-0.1c0,0,0.4,0.3,0.7,0.2
			C6.9-5.1,6.6-6.1,7.3-7.1z"/>
		<path class="st3" d="M5.5-11.4c-1.2-0.3-1.7-1.2-1.7-1.2c-0.3,0.1-0.4,0.6-0.4,0.6c-0.6,0-0.6,0.5-0.6,0.5s0,0.5,0.6,0.5
			c0,0,0.1,0.5,0.4,0.6C3.9-10.3,4.3-11.2,5.5-11.4z"/>
		<path class="st3" d="M7.3-15.7c-0.7-1-0.4-2-0.4-2c-0.3-0.2-0.7,0.2-0.7,0.2c-0.4-0.4-0.8-0.1-0.8-0.1S5-17.2,5.5-16.8
			c0,0-0.3,0.4-0.2,0.7C5.3-16.1,6.3-16.4,7.3-15.7z"/>
		<g>
			<path class="st4" d="M20.8-21.9c0.1,0.3,0.5,0.5,0.9,0.4c0,0.2,0,0.3,0,0.5c0.1,0.2,0.2,0.4,0.4,0.5c0.1,0,0.1,0,0.2,0
				c0.3,0,0.5-0.2,0.7-0.4v-1.9h-1.8C21-22.6,20.7-22.2,20.8-21.9z"/>
			<path class="st4" d="M23-21.3C23-21.3,23-21.3,23-21.3L23-21.3c-0.1,0.4-0.5,0.6-0.8,0.5c-0.3-0.1-0.5-0.5-0.3-0.9c0,0,0,0,0,0
				c-0.4,0.2-0.8,0.1-0.9-0.2c-0.1-0.3,0.5-0.9,0.5-0.9H23L23-21.3"/>
		</g>
		<path class="st5" d="M23-22.8"/>
		<path class="st5" d="M23-22.8"/>
		<g>
			<path class="st4" d="M2.4-21.9c-0.1,0.3-0.5,0.5-0.9,0.4c0,0.2,0,0.3,0,0.5c-0.1,0.2-0.2,0.4-0.4,0.5c-0.1,0-0.1,0-0.2,0
				c-0.3,0-0.5-0.2-0.7-0.4v-1.9h1.8C2.2-22.6,2.5-22.2,2.4-21.9z"/>
			<path class="st4" d="M0.2-21.3C0.2-21.3,0.2-21.3,0.2-21.3L0.2-21.3c0.1,0.4,0.5,0.6,0.8,0.5c0.3-0.1,0.5-0.5,0.3-0.9
				c0,0,0,0,0,0c0.4,0.2,0.8,0.1,0.9-0.2c0.1-0.3-0.5-0.9-0.5-0.9H0.2L0.2-21.3"/>
		</g>
		<path class="st5" d="M0.2-22.8"/>
		<path class="st5" d="M0.2-22.8"/>
		<g>
			<path class="st4" d="M20.8-0.9c0.1-0.3,0.5-0.5,0.9-0.4c0-0.2,0-0.3,0-0.5c0.1-0.2,0.2-0.4,0.4-0.5c0.1,0,0.1,0,0.2,0
				c0.3,0,0.5,0.2,0.7,0.4V0h-1.8C21-0.2,20.7-0.6,20.8-0.9z"/>
			<path class="st4" d="M23-1.6C23-1.6,23-1.6,23-1.6L23-1.6c-0.1-0.4-0.5-0.6-0.8-0.5c-0.3,0.1-0.5,0.5-0.3,0.9c0,0,0,0,0,0
				c-0.4-0.2-0.8-0.1-0.9,0.2C20.8-0.6,21.4,0,21.4,0H23L23-1.6"/>
		</g>
		<g>
			<path class="st4" d="M2.4-0.9C2.2-1.3,1.9-1.4,1.5-1.3c0-0.2,0-0.3,0-0.5C1.4-2,1.2-2.2,1-2.2c-0.1,0-0.1,0-0.2,0
				c-0.3,0-0.5,0.2-0.7,0.4V0l1.8,0C2.2-0.2,2.5-0.6,2.4-0.9z"/>
			<path class="st4" d="M0.2-1.6C0.2-1.6,0.2-1.6,0.2-1.6L0.2-1.6C0.3-2,0.7-2.2,1-2.1C1.3-2,1.5-1.6,1.3-1.2c0,0,0,0,0,0
				c0.4-0.2,0.8-0.1,0.9,0.2C2.4-0.6,1.7,0,1.7,0L0.2,0L0.2-1.6"/>
		</g>
		<path class="st5" d="M0.2,0"/>
		<path class="st5" d="M0.2,0"/>
		<polygon class="st6" points="23,0 0.2,0 0.2,-22.8 23,-22.8 		"/>
	</g>
</pattern>
<pattern  id="SVGID_1_" xlink:href="#New_Pattern_Swatch_9" patternTransform="matrix(1 0 0 1 0 -64.4474)">
</pattern>
<path class="st7" d="M280.2,90.6c60-67.3,127-79,144.3-80.3c17.3-1.3,45.3,6.7,46,30.3c0.7,23.7-28.7,33.7-43.7,33.6s-38-6-77-35.3
	s-57.3-37.3-76-38.3c-18.7-1-33.3,8.3-33.7,21.3c-0.3,13,11.7,17.4,11.7,17.4c8,4,17.7,3,18-3.3c0.3-6.3-11.7-10-20.7-1
	s-13.7,16.7-13.7,16.7s-8.5,10.2-7.2,16.2c1,4.6,4.7,5.9,6.3,6.3c0.6,0.1,1.1,0.1,1.7,0c1.7-0.4,5.3-1.7,6.3-6.3
	c1.3-6-7.2-16.2-7.2-16.2h0c0,0-4.7-7.7-13.7-16.7s-21-5.3-20.7,1c0.3,6.3,10,7.3,18.1,3.3c1-0.4,11.9-5,11.6-17.4
	c-0.3-13-15-22.3-33.7-21.3s-37,9-76,38.3s-62,35.3-77,35.3s-44.3-10-43.7-33.6s28.7-31.7,46-30.3s84.3,13,144.3,80.3"/>
</svg>
