<?xml version="1.0"?>
<svg xmlns="http://www.w3.org/2000/svg" xmlns:xlink="http://www.w3.org/1999/xlink" xmlns:svgjs="http://svgjs.com/svgjs" version="1.1" width="512" height="512" x="0" y="0" viewBox="0 0 512 512" style="enable-background:new 0 0 512 512" xml:space="preserve" class=""><g>
<g xmlns="http://www.w3.org/2000/svg" transform="translate(1 1)">
	<path style="" d="M485.43,502.498H24.57c-9.422,0-17.069-7.647-17.069-17.069V75.776h494.997v409.653   C502.498,494.852,494.852,502.498,485.43,502.498" fill="#cc9543" data-original="#ffe100" class=""/>
	<path style="" d="M476.895,75.777V485.43c0,9.422-7.647,17.069-17.069,17.069h25.603   c9.422,0,17.069-7.647,17.069-17.069V75.777H476.895z" fill="#ffa800" data-original="#ffa800"/>
	<path style="" d="M502.498,75.777H7.501V24.57c0-9.422,7.647-17.069,17.069-17.069H485.43   c9.422,0,17.069,7.647,17.069,17.069L502.498,75.777L502.498,75.777z" fill="#cc9543" data-original="#ffe100" class=""/>
	<path style="" d="M485.43,7.501h-25.603c9.422,0,17.069,7.647,17.069,17.069v51.207h25.603V24.57   C502.498,15.148,494.852,7.501,485.43,7.501" fill="#ffa800" data-original="#ffa800"/>
	<g>
		<path style="" d="M33.104,75.777V485.43c0,9.422,7.647,17.069,17.069,17.069H24.57    c-9.422,0-17.069-7.647-17.069-17.069V75.777H33.104z" fill="#ffffff" data-original="#ffffff" class=""/>
		<path style="" d="M24.57,7.501h25.603c-9.422,0-17.069,7.647-17.069,17.069v51.207H7.501V24.57    C7.501,15.148,15.148,7.501,24.57,7.501" fill="#ffffff" data-original="#ffffff" class=""/>
	</g>
	<path d="M485.429,511H24.57C10.47,511-1,499.529-1,485.429V75.776c0-4.695,3.806-8.501,8.501-8.501h494.998   c4.695,0,8.501,3.806,8.501,8.501v409.653C511,499.529,499.529,511,485.429,511z M16.002,84.278V485.43   c0,4.725,3.843,8.568,8.568,8.568h460.858c4.725,0,8.568-3.844,8.568-8.568V84.278H16.002z" fill="#000000" data-original="#000000" style="" class=""/>
	<path d="M502.499,84.278H7.501C2.806,84.278-1,80.472-1,75.777V24.57C-1,10.47,10.47-1,24.57-1h460.858   c14.1,0,25.57,11.47,25.57,25.57v51.207C511,80.472,507.194,84.278,502.499,84.278z M16.002,67.276h477.996V24.57   c0-4.725-3.844-8.568-8.568-8.568H24.57c-4.725,0-8.568,3.844-8.568,8.568V67.276z" fill="#000000" data-original="#000000" style="" class=""/>
	<path d="M50.174,41.639c0,4.711-3.823,8.534-8.534,8.534s-8.535-3.822-8.535-8.534s3.823-8.534,8.534-8.534   S50.174,36.928,50.174,41.639" fill="#000000" data-original="#000000" style="" class=""/>
	<path d="M84.311,41.639c0,4.711-3.823,8.534-8.534,8.534c-4.711,0-8.534-3.823-8.534-8.534s3.823-8.534,8.534-8.534   C80.488,33.104,84.311,36.928,84.311,41.639" fill="#000000" data-original="#000000" style="" class=""/>
	<path d="M118.448,41.639c0,4.711-3.823,8.534-8.534,8.534s-8.534-3.823-8.534-8.534s3.823-8.534,8.534-8.534   S118.448,36.928,118.448,41.639" fill="#000000" data-original="#000000" style="" class=""/>
	<path d="M84.318,365.914c-2.652,0-5.266-1.237-6.925-3.561l-42.673-59.74c-2.111-2.955-2.111-6.927,0-9.882l42.673-59.742   c2.729-3.822,8.038-4.705,11.859-1.977c3.82,2.729,4.706,8.039,1.977,11.859l-39.143,54.8l39.142,54.799   c2.729,3.82,1.844,9.13-1.976,11.859C87.754,365.4,86.028,365.914,84.318,365.914z" fill="#000000" data-original="#000000" style="" class=""/>
	<path d="M425.682,365.914c-1.71,0-3.437-0.515-4.935-1.584c-3.82-2.729-4.706-8.038-1.977-11.859l39.143-54.799l-39.143-54.8   c-2.729-3.82-1.844-9.13,1.977-11.859c3.818-2.727,9.129-1.844,11.859,1.977l42.672,59.742c2.11,2.955,2.11,6.927,0,9.882   l-42.672,59.74C430.948,364.676,428.333,365.913,425.682,365.914z" fill="#000000" data-original="#000000" style="" class=""/>
	<path d="M109.914,340.311c-4.695,0-8.501-3.806-8.501-8.501v-68.276c0-4.695,3.806-8.501,8.501-8.501s8.501,3.806,8.501,8.501   v68.276C118.415,336.505,114.609,340.311,109.914,340.311z" fill="#000000" data-original="#000000" style="" class=""/>
	<path d="M161.121,340.311c-4.695,0-8.501-3.806-8.501-8.501v-68.276c0-4.695,3.807-8.501,8.501-8.501   c4.695,0,8.501,3.806,8.501,8.501v68.276C169.622,336.505,165.816,340.311,161.121,340.311z" fill="#000000" data-original="#000000" style="" class=""/>
	<path d="M161.121,306.174h-51.207c-4.695,0-8.501-3.806-8.501-8.501s3.806-8.501,8.501-8.501h51.207   c4.695,0,8.501,3.806,8.501,8.501S165.816,306.174,161.121,306.174z" fill="#000000" data-original="#000000" style="" class=""/>
	<path d="M246.465,272.035h-51.207c-4.695,0-8.501-3.806-8.501-8.501s3.806-8.501,8.501-8.501h51.207   c4.695,0,8.501,3.806,8.501,8.501S251.16,272.035,246.465,272.035z" fill="#000000" data-original="#000000" style="" class=""/>
	<path d="M220.862,340.311c-4.695,0-8.501-3.806-8.501-8.501v-68.276c0-4.695,3.807-8.501,8.501-8.501   c4.695,0,8.501,3.806,8.501,8.501v68.276C229.363,336.505,225.557,340.311,220.862,340.311z" fill="#000000" data-original="#000000" style="" class=""/>
	<path d="M331.81,340.311c-4.695,0-8.501-3.806-8.501-8.501v-42.771l-10.301,13.734c-1.605,2.141-4.125,3.4-6.801,3.4   c-2.676,0-5.195-1.26-6.801-3.4l-10.302-13.735v42.772c0,4.695-3.806,8.501-8.501,8.501s-8.501-3.806-8.501-8.501v-68.276   c0-3.658,2.341-6.908,5.814-8.065c3.468-1.155,7.294,0.037,9.488,2.964l18.803,25.069l18.802-25.069   c2.195-2.928,6.02-4.12,9.488-2.964c3.472,1.157,5.814,4.407,5.814,8.065v68.276C340.311,336.505,336.505,340.311,331.81,340.311z" fill="#000000" data-original="#000000" style="" class=""/>
	<path d="M400.085,340.311h-34.137c-4.695,0-8.501-3.806-8.501-8.501v-68.276c0-4.695,3.806-8.501,8.501-8.501   s8.501,3.806,8.501,8.501v59.775h25.636c4.695,0,8.501,3.806,8.501,8.501C408.586,336.505,404.78,340.311,400.085,340.311z" fill="#000000" data-original="#000000" style="" class=""/>
</g>
<g xmlns="http://www.w3.org/2000/svg">
</g>
<g xmlns="http://www.w3.org/2000/svg">
</g>
<g xmlns="http://www.w3.org/2000/svg">
</g>
<g xmlns="http://www.w3.org/2000/svg">
</g>
<g xmlns="http://www.w3.org/2000/svg">
</g>
<g xmlns="http://www.w3.org/2000/svg">
</g>
<g xmlns="http://www.w3.org/2000/svg">
</g>
<g xmlns="http://www.w3.org/2000/svg">
</g>
<g xmlns="http://www.w3.org/2000/svg">
</g>
<g xmlns="http://www.w3.org/2000/svg">
</g>
<g xmlns="http://www.w3.org/2000/svg">
</g>
<g xmlns="http://www.w3.org/2000/svg">
</g>
<g xmlns="http://www.w3.org/2000/svg">
</g>
<g xmlns="http://www.w3.org/2000/svg">
</g>
<g xmlns="http://www.w3.org/2000/svg">
</g>
</g></svg>
